{
  "accessors": [
    {
      "bufferView": 2,
      "componentType": 5126,
      "count": 31509,
      "max": [
        0.059858400374650955,
        0.048002298921346664,
        0.042837999761104584
      ],
      "min": [
        -0.06550150364637375,
        -0.048349201679229736,
        -0.040955301374197006
      ],
      "type": "VEC3"
    },
    {
      "bufferView": 2,
      "byteOffset": 378108,
      "componentType": 5126,
      "count": 31509,
      "max": [
        0.9999907612800598,
        0.9997239708900452,
        0.9998916387557983
      ],
      "min": [
        -0.9999852180480957,
        -0.999924898147583,
        -0.9998622536659241
      ],
      "type": "VEC3"
    },
    {
      "bufferView": 1,
      "componentType": 5126,
      "count": 31509,
      "max": [
        0.9994099736213684,
        0.9999099969863892
      ],
      "min": [
        0.00010921899956883863,
        0.0002211359969805926
      ],
      "type": "VEC2"
    },
    {
      "bufferView": 0,
      "componentType": 5125,
      "count": 164772,
      "type": "SCALAR"
    }
  ],
  "asset": {
    "extras": {
      "author": "Emm (Scenario) (https://sketchfab.com/edemaistre)",
      "license": "CC-BY-4.0 (http://creativecommons.org/licenses/by/4.0/)",
      "source": "https://sketchfab.com/3d-models/monkey-d-luffy-scenario-71094d8604a44d1ca7e5ebe3e2d171ea",
      "title": "Monkey D. Luffy (Scenario)"
    },
    "generator": "Sketchfab-13.83.0",
    "version": "2.0"
  },
  "bufferViews": [
    {
      "buffer": 0,
      "byteLength": 659088,
      "name": "floatBufferViews",
      "target": 34963
    },
    {
      "buffer": 0,
      "byteLength": 252072,
      "byteOffset": 659088,
      "byteStride": 8,
      "name": "floatBufferViews",
      "target": 34962
    },
    {
      "buffer": 0,
      "byteLength": 756216,
      "byteOffset": 911160,
      "byteStride": 12,
      "name": "floatBufferViews",
      "target": 34962
    }
  ],
  "buffers": [
    {
      "byteLength": 1667376,
      "uri": "scene.bin"
    }
  ],
  "extensionsUsed": [
    "KHR_materials_unlit"
  ],
  "images": [
    {
      "uri": "textures/material_1_baseColor.png"
    }
  ],
  "materials": [
    {
      "doubleSided": true,
      "extensions": {
        "KHR_materials_unlit": {}
      },
      "name": "material_1",
      "pbrMetallicRoughness": {
        "baseColorTexture": {
          "index": 0
        },
        "metallicFactor": 0.0
      }
    }
  ],
  "meshes": [
    {
      "name": "Object_0",
      "primitives": [
        {
          "attributes": {
            "NORMAL": 1,
            "POSITION": 0,
            "TEXCOORD_0": 2
          },
          "indices": 3,
          "material": 0,
          "mode": 4
        }
      ]
    }
  ],
  "nodes": [
    {
      "children": [
        1
      ],
      "matrix": [
        0.12338316440582275,
        -0.9923591017723083,
        -2.2034798469679114e-16,
        0.0,
        0.0,
        2.220446049250313e-16,
        -1.0,
        0.0,
        0.9923591017723083,
        0.12338316440582275,
        2.73965659948911e-17,
        0.0,
        0.0,
        0.0,
        0.0,
        1.0
      ],
      "name": "Sketchfab_model"
    },
    {
      "children": [
        2
      ],
      "name": "output.obj.cleaner.materialmerger.gles"
    },
    {
      "mesh": 0,
      "name": "Object_2"
    }
  ],
  "samplers": [
    {
      "magFilter": 9729,
      "minFilter": 9987,
      "wrapS": 10497,
      "wrapT": 10497
    }
  ],
  "scene": 0,
  "scenes": [
    {
      "name": "Sketchfab_Scene",
      "nodes": [
        0
      ]
    }
  ],
  "textures": [
    {
      "sampler": 0,
      "source": 0
    }
  ]
}
